<?xml version="1.0" encoding="UTF-8" standalone="no"?>
<svg xmlns:dc="http://purl.org/dc/elements/1.1/"
   xmlns:cc="http://creativecommons.org/ns#"
   xmlns:rdf="http://www.w3.org/1999/02/22-rdf-syntax-ns#"
   xmlns:svg="http://www.w3.org/2000/svg"
   xmlns="http://www.w3.org/2000/svg"
   xmlns:sodipodi="http://sodipodi.sourceforge.net/DTD/sodipodi-0.dtd"
   xmlns:inkscape="http://www.inkscape.org/namespaces/inkscape" viewBox="0 0 700 700" version="1.1" id="svg10" sodipodi:docname="flamengo-logo-2020.svg" width="700" height="700" inkscape:version="0.92.4 (5da689c313, 2019-01-14)" inkscape:export-filename="C:\Users\suitedoalex\Downloads\flamengo-logo-6.png" inkscape:export-xdpi="197.48572" inkscape:export-ydpi="197.48572">
   <metadata id="metadata16">
      <rdf:RDF>
         <cc:Work rdf:about="">
            <dc:format>image/svg+xml</dc:format>
            <dc:type rdf:resource="http://purl.org/dc/dcmitype/StillImage" />
            <dc:title></dc:title>
         </cc:Work>
      </rdf:RDF>
   </metadata>
   <defs id="defs14" />
   <sodipodi:namedview pagecolor="#ffffff" bordercolor="#666666" borderopacity="1" objecttolerance="10" gridtolerance="10" guidetolerance="10" inkscape:pageopacity="0" inkscape:pageshadow="2" inkscape:window-width="1600" inkscape:window-height="837" id="namedview12" showgrid="false" fit-margin-top="0" fit-margin-left="0" fit-margin-right="0" fit-margin-bottom="0" inkscape:zoom="0.77507996" inkscape:cx="450.24808" inkscape:cy="315.75282" inkscape:window-x="-8" inkscape:window-y="-8" inkscape:window-maximized="1" inkscape:current-layer="svg10" />
   <style type="text/css" id="style2">  
	.st0{fill-rule:evenodd;clip-rule:evenodd;fill:#070308;}
	.st1{fill-rule:evenodd;clip-rule:evenodd;fill:#9F3025;}
	.st2{fill-rule:evenodd;clip-rule:evenodd;fill:#FFFFFF;}
   </style>
   <path class="st0" d="m 350.00005,605.03077 c 61.18281,-25.84185 113.4794,-67.8221 150.14832,-123.38722 35.23886,-53.31795 55.66721,-116.64583 55.66721,-181.71012 V 94.322117 H 350.00005 144.18442 V 299.93343 c 0,65.06429 20.42839,128.39217 55.66729,181.71012 36.66888,55.56512 88.9654,97.54537 150.14834,123.38722 z" id="path4-9" inkscape:connector-curvature="0" style="clip-rule:evenodd;fill:#070308;fill-rule:evenodd;stroke:#ffffff;stroke-width:15.13018799;stroke-miterlimit:4;stroke-dasharray:none;paint-order:stroke fill markers" inkscape:export-filename="G:\Users\suitedoalex\sites\flamengo-logo-escudo-novo-7.png" inkscape:export-xdpi="323.9281" inkscape:export-ydpi="323.9281" />
   <path class="st1" d="M 335.29158,109.43913 H 160.01647 v 155.86825 h 175.27511 z m 204.69207,46.7809 h -189.9836 v 61.89789 h 189.9836 z M 208.63587,465.8116 h 282.7283 c 12.15486,-19.50905 22.26693,-40.24385 30.02969,-61.89791 H 178.60619 c 7.76279,21.65406 17.87481,42.38886 30.02968,61.89791 z m -48.6194,-185.69367 v 19.30483 c 0,14.2998 1.02138,28.59964 3.06421,42.59303 h 373.83867 c 2.04288,-14.0955 3.0643,-28.29323 3.0643,-42.59303 v -19.30483 z m 189.98358,307.95729 c 33.91104,-14.50408 64.75781,-35.23885 91.21253,-60.26361 H 258.78745 c 26.45475,25.12688 57.30153,45.75953 91.2126,60.26361 z" id="path6-7" style="clip-rule:evenodd;fill:#c3281e;fill-opacity:1;fill-rule:evenodd;stroke-width:21.61455345;stroke-miterlimit:4;stroke-dasharray:none" inkscape:connector-curvature="0" inkscape:export-filename="G:\Users\suitedoalex\sites\flamengo-logo-escudo-novo-7.png" inkscape:export-xdpi="323.9281" inkscape:export-ydpi="323.9281" />
   <path class="st2" d="m 249.69686,230.68133 v -10.72488 c -6.84352,3.16642 -15.2191,4.18783 -22.67544,3.26851 -20.83692,-2.65568 -34.21752,-19.40692 -34.21752,-40.14168 0,-18.99832 12.25705,-36.87312 31.56178,-36.87312 7.76279,0 15.11701,3.67706 18.38556,12.66557 3.06426,-6.74138 3.47281,-21.24547 0.91923,-27.57828 -1.73634,-0.20447 -3.57497,-0.20447 -5.41346,-0.20447 -7.55853,0 -14.91271,1.42997 -21.0412,3.57495 -14.29985,4.90279 -26.4547,15.83197 -33.70679,29.1104 -4.90283,8.98846 -7.04776,17.05765 -12.66556,17.05765 6.43492,28.08902 26.65901,51.47942 56.68867,53.1137 7.35418,0.20447 14.70835,-0.81712 22.16473,-3.26855 z M 238.257,127.92679 c 23.79905,0 40.03954,13.07413 40.03954,36.97528 0,8.88636 -2.75781,17.67055 -8.8863,24.00331 h 11.23555 c 12.5634,-12.76772 10.31627,-28.70183 18.79412,-28.70183 -11.74635,-29.31465 -28.08898,-43.51239 -64.65575,-42.59308 -11.03125,0.10205 -16.34264,0.20447 -25.43332,-3.06425 l 6.63925,17.26195 c 6.23069,-2.24715 14.19769,-3.88138 22.26691,-3.88138 z M 230.39203,236.912 c -4.59638,0 -9.29486,-0.51067 -13.78909,-1.63428 0,9.90772 -2.24714,14.40196 -6.43496,17.46625 5.20921,5.41354 18.69196,7.76278 29.82537,4.59637 -7.252,-4.49423 -9.60132,-11.64414 -9.60132,-20.42834 z m 74.86992,-50.76442 c -2.4514,3.06425 -5.82205,5.7199 -13.9934,5.7199 h -24.71827 v -37.79239 h 7.45634 c -1.02146,-4.08572 -2.85997,-7.76283 -5.00498,-11.03134 h -3.26853 c -6.3328,0 -12.257,-0.91927 -18.48765,-3.26851 l 5.41349,14.19769 v 37.69029 c 6.63921,2.14494 11.13344,6.02636 15.93413,11.0313 h 15.0148 c 8.4778,0 11.84841,5.71994 11.13344,13.58487 15.01486,-7.86493 12.46132,-25.22903 10.52063,-30.13181 z m -38.71167,50.96871 v -8.98849 c -3.77926,-5.82206 -8.37563,-12.46131 -13.78917,-16.85339 v 24.20757 c 0,8.7842 -2.3493,14.1977 -6.53707,17.05768 5.20923,5.4135 18.69197,7.76274 29.82536,4.59638 -7.25202,-4.28993 -9.49912,-12.56342 -9.49912,-20.01975 z m 53.42007,-101.52891 c -2.55355,4.59638 -7.25203,7.45637 -15.83193,7.45637 h -10.1121 c 2.14497,3.37071 4.08572,7.04778 6.0264,11.03134 8.06919,0 10.41846,8.57985 9.29492,13.58483 15.42335,-7.86494 12.56344,-27.16971 10.62271,-32.07254 z m -31.76604,96.62609 c -7.25209,-7.96709 -14.29984,-21.75618 -27.16971,-32.37891 -8.88635,-7.35422 -20.83692,-8.88635 -30.74472,-8.88635 v -40.85668 c -4.69849,-1.32783 -9.19271,-1.02143 -13.7891,0.20404 v 67.10713 c 4.39213,1.83853 9.09061,2.9621 13.7891,3.16636 v -18.28337 c 16.34267,0 23.79905,4.29002 32.07253,14.91271 8.78425,11.23564 20.12194,33.19607 30.84679,40.65244 6.33281,-1.22573 20.22408,-11.13345 21.34767,-23.9012 -8.4778,6.12855 -18.38554,6.9457 -26.35256,-1.73639 z" id="path8-1" inkscape:connector-curvature="0" style="clip-rule:evenodd;fill:#ffffff;fill-rule:evenodd;stroke-width:21.61455345;stroke-miterlimit:4;stroke-dasharray:none" inkscape:export-filename="G:\Users\suitedoalex\sites\flamengo-logo-escudo-novo-7.png" inkscape:export-xdpi="323.9281" inkscape:export-ydpi="323.9281" />
</svg>
